<svg width="24" height="24" viewBox="0 0 24 24" fill="none" xmlns="http://www.w3.org/2000/svg">
<path d="M16.7424 15.3968L16.1357 16.0363C16.1357 16.0363 14.6917 17.5554 10.7517 13.4076C6.81176 9.25981 8.25575 7.74074 8.25575 7.74074L8.63708 7.33697C9.57974 6.3459 9.66908 4.75342 8.84642 3.59012L7.16643 1.2141C6.14777 -0.225913 4.18111 -0.416503 3.01446 0.811742L0.921135 3.01411C0.343806 3.624 -0.0428584 4.41177 0.00380797 5.28707C0.123807 7.52756 1.08113 12.346 6.41976 17.9676C12.0824 23.9282 17.3957 24.1653 19.5677 23.9508C20.2557 23.883 20.853 23.5131 21.3343 23.0049L23.2277 21.0114C24.5076 19.666 24.1476 17.3578 22.5103 16.4161L19.9637 14.9493C18.889 14.3323 17.5824 14.513 16.7424 15.3968Z" fill="white"/>
</svg>
